<svg xmlns="http://www.w3.org/2000/svg" viewBox="0 0 713.44 185.38"><defs><style>.cls-1{fill:#f9ae00;stroke:#f9ae00;stroke-width:6px;}.cls-1,.cls-2{stroke-miterlimit:10;}.cls-2,.cls-3{fill:#2e2d2c;}.cls-2{stroke:#2e2d2c;}</style></defs><g id="Capa_2" data-name="Capa 2"><g id="Capa_1-2" data-name="Capa 1"><path class="cls-1" d="M708.08,46.07,629.65,3.46,553.54,50.08l2.31,89.22,78.43,42.61,76.11-46.61ZM634.23,180.28l-77-41.83L555,50.86,629.7,5.1l77,41.83L709,134.52Z"/><path class="cls-2" d="M630.86,31.87c-2.07,0-4.1.11-6.12.31v2.49a58.34,58.34,0,1,1-49.92,74.24h-2.57a60.81,60.81,0,1,0,58.61-77Z"/><path class="cls-2" d="M655.17,49.1V46.38A52.16,52.16,0,0,0,607.23,46v2.69a49.94,49.94,0,0,1,47.94.38Z"/><path class="cls-2" d="M678.56,71.27h-2.63a49.9,49.9,0,0,1-72,63.45v2.83a52.27,52.27,0,0,0,74.59-66.28Z"/><path class="cls-2" d="M598.57,116.15a40.31,40.31,0,0,1,2.33-50.66l-2.39-.61a42.49,42.49,0,0,0-.64,54Z"/><path class="cls-2" d="M662,67.1l2.23-.75a42.75,42.75,0,0,0-33-16.66l.75,2.23A40.46,40.46,0,0,1,662,67.1Z"/><path class="cls-2" d="M669.56,81.49a40.3,40.3,0,0,1-61.09,44.72v2.61a42.46,42.46,0,0,0,63.38-47.33Z"/><path class="cls-2" d="M599.83,92.69a31,31,0,0,1,18-28.13V61.89a33.34,33.34,0,0,0-19.13,39.84h2.49A31,31,0,0,1,599.83,92.69Z"/><path class="cls-3" d="M46.31,72.44A3,3,0,0,1,48,71.55a10.32,10.32,0,0,1,1.78-.16,5.55,5.55,0,0,1,5.67,5.3A5.67,5.67,0,0,1,54,80.84a17,17,0,0,1-4.51,3.47,32.63,32.63,0,0,1-6.14,2.31,34.43,34.43,0,0,1-9.19,1,31.56,31.56,0,0,1-15-3.41A31.07,31.07,0,0,1,8.45,75,41.64,41.64,0,0,1,2.1,61.31,63.36,63.36,0,0,1,0,44.72,63.36,63.36,0,0,1,2.1,28.13a41.09,41.09,0,0,1,6.35-13.6A31.32,31.32,0,0,1,19.11,5.29a31.56,31.56,0,0,1,15-3.41,34.43,34.43,0,0,1,9.19,1.05,32.63,32.63,0,0,1,6.14,2.31A15.48,15.48,0,0,1,54,8.6a5.66,5.66,0,0,1,1.47,4.14,5.37,5.37,0,0,1-1.89,3.94c-1.33,1.12-2.41,1.65-3.25,1.58a3.44,3.44,0,0,1-1.63-.42c-.52-.28-1.14-.6-1.84-.95a46.86,46.86,0,0,0-6-2.73,20.15,20.15,0,0,0-6.72-.94,20,20,0,0,0-10.4,2.57,20.89,20.89,0,0,0-7,6.93,31.5,31.5,0,0,0-4,10.08,57,57,0,0,0,0,23.84,31.5,31.5,0,0,0,4,10.08,20.79,20.79,0,0,0,7,6.93,19.88,19.88,0,0,0,10.4,2.57A25.47,25.47,0,0,0,37.28,76a26.46,26.46,0,0,0,3.31-.63,17.25,17.25,0,0,0,3.15-1.15A9.41,9.41,0,0,0,46.31,72.44Z"/><path class="cls-3" d="M61.74,7.55a5.65,5.65,0,0,1,1.68-4,5.17,5.17,0,0,1,4.1-1.62h39.69a5.54,5.54,0,0,1,5.67,5.67,5.55,5.55,0,0,1-5.67,5.67H86q-5.88,0-9.34,3.52A12.62,12.62,0,0,0,73.19,26v2.2a10.74,10.74,0,0,0,2.89,7.88,10.45,10.45,0,0,0,7.82,2.94H94.61a5.46,5.46,0,0,1,4,1.63,5.84,5.84,0,0,1,1.74,4,5,5,0,0,1-1.63,4,5.84,5.84,0,0,1-4.15,1.63H83.9a10.45,10.45,0,0,0-7.82,2.94,10.74,10.74,0,0,0-2.89,7.88v2.2a12.62,12.62,0,0,0,3.47,9.29q3.47,3.52,9.34,3.52h21.21a5.55,5.55,0,0,1,5.67,5.67,5.69,5.69,0,0,1-1.62,4.1,5.43,5.43,0,0,1-4.05,1.68H67.41a5.34,5.34,0,0,1-4-1.73,5.88,5.88,0,0,1-1.63-4.15Z"/><path class="cls-3" d="M119.18,7.65a5.84,5.84,0,0,1,1.63-4.15A5.15,5.15,0,0,1,125,1.88h22.79A25.8,25.8,0,0,1,158.14,4a27,27,0,0,1,14.18,14.17,25.81,25.81,0,0,1,2.1,10.4A25.4,25.4,0,0,1,172,40.2a31.29,31.29,0,0,1-7.45,9.14,5,5,0,0,0-1.37,1.94,2.84,2.84,0,0,0,.11,2.26L174,79.79a5.68,5.68,0,0,1-.06,4.36,5.6,5.6,0,0,1-3.09,3.1,4.68,4.68,0,0,1-2.1.42,5.73,5.73,0,0,1-3.15-1,5.19,5.19,0,0,1-2.1-2.62L152.37,56.8a2.07,2.07,0,0,0-1.11-1.21,3.72,3.72,0,0,0-1.62-.37,8.8,8.8,0,0,0-.95.05,6.76,6.76,0,0,1-.94.06h-8.62a8,8,0,0,0-8.5,8.5V81.89a5.43,5.43,0,0,1-1.68,4,6.1,6.1,0,0,1-4.1,1.73,5,5,0,0,1-4-1.63,5.82,5.82,0,0,1-1.63-4.15Zm11.45,14.18V35.37a8.44,8.44,0,0,0,2.31,6.15,8.27,8.27,0,0,0,6.19,2.36h8.62a14.66,14.66,0,0,0,5.93-1.21,15.44,15.44,0,0,0,4.88-3.31,15.67,15.67,0,0,0,3.31-4.88,14.8,14.8,0,0,0,1.21-5.93,15.23,15.23,0,0,0-1.21-6,15,15,0,0,0-3.31-4.88,16,16,0,0,0-4.88-3.25,14.66,14.66,0,0,0-5.93-1.21h-8.62a8.27,8.27,0,0,0-6.19,2.36A8.57,8.57,0,0,0,130.63,21.83Z"/><path class="cls-3" d="M181.14,1.88h59a5.55,5.55,0,0,1,4,1.62,5.43,5.43,0,0,1,1.68,4.05,5.39,5.39,0,0,1-1.68,4,5.52,5.52,0,0,1-4,1.63h-12a11.64,11.64,0,0,0-8.61,3.25,11.64,11.64,0,0,0-3.25,8.61V81.89a5.7,5.7,0,0,1-1.63,4.1,5.4,5.4,0,0,1-4,1.68,5.74,5.74,0,0,1-5.78-5.78V25.08a11.64,11.64,0,0,0-3.26-8.61A11.64,11.64,0,0,0,193,13.22H181.14a5.57,5.57,0,0,1-5.67-5.67,5.55,5.55,0,0,1,5.67-5.67Z"/><path class="cls-3" d="M174.44,103.83a5.72,5.72,0,0,1,1.63-4.09,5.43,5.43,0,0,1,4.05-1.68h22.16a23.66,23.66,0,0,1,9.44,1.9,23,23,0,0,1,7.61,5.2,25.29,25.29,0,0,1,5.09,7.72,23.73,23.73,0,0,1,1.89,9.45,24.51,24.51,0,0,1-1.85,9.35,23.49,23.49,0,0,1-5.2,7.87l-.21.21c-.07.07-.07.18,0,.31a24.42,24.42,0,0,1,7.08,8.57A24.82,24.82,0,0,1,226.7,169a25.15,25.15,0,0,1-5.1,7.71,24,24,0,0,1-7.61,5.25,23.09,23.09,0,0,1-9.45,1.93H180.17a6,6,0,0,1-4.09-1.79A5.56,5.56,0,0,1,174.4,178Zm20.76,68.58h9.34a12,12,0,0,0,5-1,12.75,12.75,0,0,0,6.67-6.87,12.82,12.82,0,0,0,1-5,12.43,12.43,0,0,0-1-4.94,13.32,13.32,0,0,0-2.73-4.09,13.12,13.12,0,0,0-4-2.84,11.76,11.76,0,0,0-4.93-1h-10.5a7.75,7.75,0,0,0-8.2,8.19v8.29a9.24,9.24,0,0,0,2.51,6.78A9.13,9.13,0,0,0,195.2,172.41Zm-9.32-45.47a8.23,8.23,0,0,0,2.25,6,7.92,7.92,0,0,0,5.93,2.31h8.3a11.4,11.4,0,0,0,4.88-1,13.09,13.09,0,0,0,4-2.84,13.29,13.29,0,0,0,2.74-4.14,12.68,12.68,0,0,0,0-9.87,13.09,13.09,0,0,0-2.67-4.1,12.88,12.88,0,0,0-4-2.78,12,12,0,0,0-5-1.06h-8.19a7.75,7.75,0,0,0-8.2,8.18Z"/><path class="cls-3" d="M283.89,172.83a5.18,5.18,0,0,0-4-1.83l-21.21,0a11.8,11.8,0,0,1-9.35-4c-2.31-2.63-3.46-6.12-3.46-10.44l0-62.8a6.29,6.29,0,0,0-.07-.77,2.29,2.29,0,0,0,0-.25V27.42a6.87,6.87,0,0,0-1.68-4.69,5.21,5.21,0,0,0-4.09-1.93A5.09,5.09,0,0,0,236,22.73a7,7,0,0,0-1.62,4.69V92.76a6.83,6.83,0,0,0,.06.79c0,.08,0,.15,0,.22l0,83.45a7.06,7.06,0,0,0,1.62,4.67,5.06,5.06,0,0,0,4,2l39.8,0a5.1,5.1,0,0,0,4.05-1.88,6.83,6.83,0,0,0,1.63-4.6A6.63,6.63,0,0,0,283.89,172.83Z"/><path class="cls-3" d="M285,141a64.67,64.67,0,0,1,2.05-16.59,42.75,42.75,0,0,1,6.15-13.64,29.81,29.81,0,0,1,10.25-9.24,29.37,29.37,0,0,1,14.33-3.35,29,29,0,0,1,14.33,3.42,30.43,30.43,0,0,1,10.24,9.25,41.89,41.89,0,0,1,6.13,13.6,68.15,68.15,0,0,1,0,33.18,42.59,42.59,0,0,1-6.15,13.65,30.24,30.24,0,0,1-10.24,9.29,31.84,31.84,0,0,1-28.67,0,30.33,30.33,0,0,1-10.23-9.3A42.79,42.79,0,0,1,287,157.56,64.81,64.81,0,0,1,285,141Zm11.44,0a60.17,60.17,0,0,0,1.15,11.92A32.24,32.24,0,0,0,301.31,163a20.29,20.29,0,0,0,6.61,6.94,20.08,20.08,0,0,0,19.64,0,20.38,20.38,0,0,0,6.62-6.93,32,32,0,0,0,3.73-10.08A60,60,0,0,0,339.07,141a59.29,59.29,0,0,0-1.14-11.86,32.07,32.07,0,0,0-3.73-10,20.63,20.63,0,0,0-6.61-7,17.61,17.61,0,0,0-9.81-2.63,17.87,17.87,0,0,0-9.82,2.57,20.16,20.16,0,0,0-6.62,6.92,32.44,32.44,0,0,0-3.74,10.08A60.17,60.17,0,0,0,296.44,141Z"/><path class="cls-3" d="M403.11,168.75a3.08,3.08,0,0,1,1.68-.89,10.37,10.37,0,0,1,1.79-.15,5.33,5.33,0,0,1,3.78,1.36,5.39,5.39,0,0,1,1.89,3.94,5.72,5.72,0,0,1-1.48,4.15,17,17,0,0,1-4.51,3.46,32.75,32.75,0,0,1-6.15,2.31,34.41,34.41,0,0,1-9.19,1,31.4,31.4,0,0,1-15-3.42,30.94,30.94,0,0,1-10.65-9.3,41.44,41.44,0,0,1-6.35-13.65,66.62,66.62,0,0,1,0-33.19,40.77,40.77,0,0,1,6.36-13.59A30.32,30.32,0,0,1,391,98.18a34.39,34.39,0,0,1,9.19,1.06,32.63,32.63,0,0,1,6.14,2.31,15.67,15.67,0,0,1,4.52,3.36,5.72,5.72,0,0,1,1.46,4.15,5.37,5.37,0,0,1-1.89,3.94c-1.33,1.12-2.42,1.64-3.26,1.57a3.37,3.37,0,0,1-1.62-.42l-1.84-1a47.5,47.5,0,0,0-6-2.73,23,23,0,0,0-17.12,1.62,20.73,20.73,0,0,0-7,6.93,31.59,31.59,0,0,0-4,10.07A55.33,55.33,0,0,0,368.27,141a54.71,54.71,0,0,0,1.25,11.92,31.53,31.53,0,0,0,4,10.08,20.76,20.76,0,0,0,7,6.94,19.92,19.92,0,0,0,10.39,2.58,25.47,25.47,0,0,0,3.15-.21,26.46,26.46,0,0,0,3.31-.63,17.25,17.25,0,0,0,3.15-1.15A9.41,9.41,0,0,0,403.11,168.75Z"/><path class="cls-3" d="M418.54,178.21l0-74.34a5.66,5.66,0,0,1,1.63-4.1,5.09,5.09,0,0,1,4-1.57,6.17,6.17,0,0,1,4.09,1.68,5.23,5.23,0,0,1,1.68,4v15.55q0,8.19,3.57,8.19c1.75,0,3.88-1.5,6.41-4.51l19.44-22.88a4.92,4.92,0,0,1,4.41-2,5.65,5.65,0,0,1,3.67,1.27,5.14,5.14,0,0,1,2.05,3.88,5.58,5.58,0,0,1-1.42,4.2l-21.23,25a12.45,12.45,0,0,0-3.26,9.08,12.83,12.83,0,0,0,4.3,8.67l25.61,23.85A5.13,5.13,0,0,1,475.4,178a5.76,5.76,0,0,1-1.52,4.09,5.39,5.39,0,0,1-4.2,1.89,5.29,5.29,0,0,1-3.89-1.58l-33.27-31a2.45,2.45,0,0,0-.84-.42,1.45,1.45,0,0,0-.94.53,2.28,2.28,0,0,0-.58,1.1,5.84,5.84,0,0,0-.16,1.21v24.36a5.39,5.39,0,0,1-1.68,4,6.12,6.12,0,0,1-4.1,1.73,5,5,0,0,1-4-1.63A5.82,5.82,0,0,1,418.54,178.21Z"/><path class="cls-3" d="M479.59,119.44a20.5,20.5,0,0,1,1.73-8.4,17.43,17.43,0,0,1,5.42-6.71A27.62,27.62,0,0,1,496,99.87a48.33,48.33,0,0,1,13.29-1.62,43.65,43.65,0,0,1,8.5.74,33.51,33.51,0,0,1,6.41,1.89,20.83,20.83,0,0,1,4.61,2.63,21.59,21.59,0,0,1,3.15,2.94,16.22,16.22,0,0,1,2.42,3.52c.55,1.16,1,2.23,1.36,3.21a16.27,16.27,0,0,1,.52,3,5.74,5.74,0,0,1-1.47,4.2,4.79,4.79,0,0,1-4,1.68,6.42,6.42,0,0,1-3.94-1.47,6.07,6.07,0,0,1-2-3.79,9,9,0,0,0-.69-1.73,6.71,6.71,0,0,0-2.25-2.41,16.62,16.62,0,0,0-4.67-2.16,27.1,27.1,0,0,0-7.93-1q-8.93,0-13.55,2.36a8.07,8.07,0,0,0-4.73,7.5,7.47,7.47,0,0,0,1.31,4.73,16.3,16.3,0,0,0,3.52,3.57,41.86,41.86,0,0,0,6.87,4c2.56,1.2,5.16,2.35,7.82,3.47,2.94,1.2,6,2.54,9.09,4a45.84,45.84,0,0,1,8.5,5.31,26.21,26.21,0,0,1,6.29,7.2,19.3,19.3,0,0,1,2.57,9.71,20.64,20.64,0,0,1-2.31,10.6,19.9,19.9,0,0,1-6.47,7,27.1,27.1,0,0,1-9.29,3.83A50.69,50.69,0,0,1,508,184a31.34,31.34,0,0,1-11.66-1.69,34,34,0,0,1-7.56-3.89,20.4,20.4,0,0,1-5.66-5.83,13.34,13.34,0,0,1-2.1-5.93,6.21,6.21,0,0,1,1.1-4.15,5.8,5.8,0,0,1,3.63-2.46,2.71,2.71,0,0,1,.84-.11,5.59,5.59,0,0,1,3.46,1.21,5.77,5.77,0,0,1,2.1,3l.32,1.27a8,8,0,0,0,4.93,5.41,27.1,27.1,0,0,0,10.6,1.73,49.68,49.68,0,0,0,6.67-.41,17.47,17.47,0,0,0,5.62-1.63,9.44,9.44,0,0,0,3.83-3.41,10.36,10.36,0,0,0,1.43-5.67,7.9,7.9,0,0,0-1.42-4.72,16.25,16.25,0,0,0-3.51-3.57,39.8,39.8,0,0,0-6.83-4c-2.52-1.15-5.11-2.33-7.77-3.52q-4.72-2.1-9.13-4.15a43.17,43.17,0,0,1-7.87-4.68,25.46,25.46,0,0,1-6.93-7.51A19,19,0,0,1,479.59,119.44Z"/></g></g></svg>