<svg xmlns="http://www.w3.org/2000/svg" viewBox="0 0 478.27 544.11"><defs><style>.cls-1,.cls-3{fill:#f9ae00;}.cls-2{fill:#2e2d2c;}.cls-3{stroke:#f9ae00;stroke-miterlimit:10;stroke-width:13px;}</style></defs><g id="Capa_2" data-name="Capa 2"><g id="Capa_1-2" data-name="Capa 1"><path class="cls-1" d="M311.35,135.06v-7.73a147.8,147.8,0,0,0-135.84-1V134a141.44,141.44,0,0,1,135.84,1.08Z"/><path class="cls-1" d="M330.83,186.05l6.33-2.11a121.08,121.08,0,0,0-93.43-47.22l2.11,6.32A114.51,114.51,0,0,1,330.83,186.05Z"/><path class="cls-2" d="M85.46,239.92a2.16,2.16,0,0,1,1.17-.62,7.69,7.69,0,0,1,1.23-.11,3.7,3.7,0,0,1,2.62.95,3.76,3.76,0,0,1,1.31,2.73,3.92,3.92,0,0,1-1,2.87,11.93,11.93,0,0,1-3.12,2.4,23.26,23.26,0,0,1-4.26,1.6,24,24,0,0,1-6.36.72,21.75,21.75,0,0,1-10.4-2.36,21.34,21.34,0,0,1-7.38-6.43,28.91,28.91,0,0,1-4.4-9.46,46.21,46.21,0,0,1,0-23,28.41,28.41,0,0,1,4.4-9.42,21.57,21.57,0,0,1,7.38-6.4A21.86,21.86,0,0,1,77,191.06a23.57,23.57,0,0,1,6.36.73,21.88,21.88,0,0,1,4.26,1.6,10.8,10.8,0,0,1,3.12,2.32,3.92,3.92,0,0,1,1,2.88,3.73,3.73,0,0,1-1.31,2.72,3.46,3.46,0,0,1-2.25,1.09,2.29,2.29,0,0,1-1.13-.29l-1.27-.65a30.92,30.92,0,0,0-4.15-1.89,13.81,13.81,0,0,0-4.65-.66,13.88,13.88,0,0,0-7.2,1.78,14.42,14.42,0,0,0-4.87,4.8,21.87,21.87,0,0,0-2.76,7,39.16,39.16,0,0,0,0,16.51A21.87,21.87,0,0,0,65,236a14.42,14.42,0,0,0,4.87,4.8,13.78,13.78,0,0,0,7.2,1.78,17.13,17.13,0,0,0,2.18-.15A17.45,17.45,0,0,0,81.5,242a12.12,12.12,0,0,0,2.18-.8A6.34,6.34,0,0,0,85.46,239.92Z"/><path class="cls-2" d="M96.15,195a3.88,3.88,0,0,1,1.17-2.8,3.55,3.55,0,0,1,2.83-1.13h27.49a3.83,3.83,0,0,1,2.8,1.13,3.92,3.92,0,0,1-2.8,6.72H113a8.64,8.64,0,0,0-6.47,2.44,8.76,8.76,0,0,0-2.4,6.43v1.53a7.4,7.4,0,0,0,2,5.45,7.21,7.21,0,0,0,5.41,2h7.42a3.8,3.8,0,0,1,2.8,1.13,4.07,4.07,0,0,1,1.2,2.8,3.45,3.45,0,0,1-1.13,2.79,4,4,0,0,1-2.87,1.13h-7.42a7.21,7.21,0,0,0-5.41,2,7.41,7.41,0,0,0-2,5.45v1.53a8.76,8.76,0,0,0,2.4,6.43,8.64,8.64,0,0,0,6.47,2.44h14.69a3.84,3.84,0,0,1,3.92,3.93,3.91,3.91,0,0,1-1.12,2.83,3.74,3.74,0,0,1-2.8,1.16H100.08a3.68,3.68,0,0,1-2.8-1.2,4,4,0,0,1-1.13-2.87Z"/><path class="cls-2" d="M135.92,195.06a4,4,0,0,1,1.13-2.87,3.55,3.55,0,0,1,2.87-1.13H155.7a17.85,17.85,0,0,1,7.2,1.45,18.8,18.8,0,0,1,9.82,9.82,17.85,17.85,0,0,1,1.45,7.2,17.66,17.66,0,0,1-1.67,8.07,21.94,21.94,0,0,1-5.16,6.33,3.27,3.27,0,0,0-1,1.34,2,2,0,0,0,.07,1.56L173.88,245a4,4,0,0,1,0,3,3.85,3.85,0,0,1-2.14,2.14,3.17,3.17,0,0,1-1.46.29,3.94,3.94,0,0,1-2.18-.65,3.59,3.59,0,0,1-1.45-1.82l-7.71-18.9a1.43,1.43,0,0,0-.76-.84A2.65,2.65,0,0,0,157,228a6.32,6.32,0,0,0-.65,0,4.5,4.5,0,0,1-.66,0h-6a5.51,5.51,0,0,0-5.89,5.89v12.51a3.74,3.74,0,0,1-1.16,2.79,4.13,4.13,0,0,1-2.84,1.2,3.46,3.46,0,0,1-2.8-1.12,4.06,4.06,0,0,1-1.13-2.87Zm7.93,9.81v9.38a5.82,5.82,0,0,0,1.6,4.26,5.74,5.74,0,0,0,4.29,1.63h6a10.13,10.13,0,0,0,4.11-.83,10.81,10.81,0,0,0,5.67-5.67,10.21,10.21,0,0,0,.84-4.11,10.58,10.58,0,0,0-3.13-7.53,11.35,11.35,0,0,0-3.38-2.25,10.14,10.14,0,0,0-4.11-.84h-6a5.74,5.74,0,0,0-4.29,1.64A5.9,5.9,0,0,0,143.85,204.87Z"/><path class="cls-2" d="M178.83,191.06h40.86a3.84,3.84,0,0,1,2.76,1.13,3.94,3.94,0,0,1,0,5.6,3.83,3.83,0,0,1-2.76,1.12H211.4a7.76,7.76,0,0,0-8.22,8.22v39.34a3.91,3.91,0,0,1-1.12,2.83,3.74,3.74,0,0,1-2.8,1.16,4,4,0,0,1-4-4V207.13a7.76,7.76,0,0,0-8.22-8.22h-8.21a3.93,3.93,0,1,1,0-7.85Z"/><path class="cls-2" d="M174.19,261.66a3.94,3.94,0,0,1,1.13-2.84,3.75,3.75,0,0,1,2.8-1.16h15.34A16.43,16.43,0,0,1,200,259a16.08,16.08,0,0,1,5.27,3.6,17.48,17.48,0,0,1,3.53,5.35,16.49,16.49,0,0,1,1.3,6.54,17.23,17.23,0,0,1-1.27,6.48,16.42,16.42,0,0,1-3.61,5.45l-.14.14c-.05,0-.05.12,0,.22a17,17,0,0,1,4.9,5.93,16.72,16.72,0,0,1,1.71,7.53,16.33,16.33,0,0,1-1.32,6.54,17.55,17.55,0,0,1-3.53,5.34,16.32,16.32,0,0,1-5.27,3.63,15.85,15.85,0,0,1-6.54,1.34H178.16a4.12,4.12,0,0,1-2.84-1.23,3.89,3.89,0,0,1-1.16-2.84Zm14.37,47.48H195a8.27,8.27,0,0,0,3.49-.73,8.92,8.92,0,0,0,2.77-1.92,9.24,9.24,0,0,0,1.85-2.84,8.78,8.78,0,0,0,.69-3.45,8.57,8.57,0,0,0-.69-3.42,9.33,9.33,0,0,0-1.88-2.83,9.22,9.22,0,0,0-2.8-2,8.27,8.27,0,0,0-3.42-.73h-7.27a5.37,5.37,0,0,0-5.68,5.67v5.74a6.43,6.43,0,0,0,1.74,4.69A6.32,6.32,0,0,0,188.56,309.14Zm-6.45-31.48a5.6,5.6,0,0,0,1.56,4.14,5.46,5.46,0,0,0,4.1,1.6h5.75a7.84,7.84,0,0,0,3.38-.73,9.08,9.08,0,0,0,2.76-2,9.39,9.39,0,0,0,1.9-2.87,8.62,8.62,0,0,0,.69-3.38,8.78,8.78,0,0,0-.69-3.45,8.87,8.87,0,0,0-4.61-4.77,8.42,8.42,0,0,0-3.49-.73h-5.68a5.37,5.37,0,0,0-5.67,5.67Z"/><path class="cls-2" d="M250,309.43a3.59,3.59,0,0,0-2.79-1.26H232.49a8.18,8.18,0,0,1-6.47-2.75,10.55,10.55,0,0,1-2.4-7.23l0-43.48a4.73,4.73,0,0,0,0-.54c0-.06,0-.11,0-.17V208.75a4.75,4.75,0,0,0-1.17-3.25,3.62,3.62,0,0,0-2.83-1.34,3.52,3.52,0,0,0-2.8,1.34,4.82,4.82,0,0,0-1.13,3.25V254a4.91,4.91,0,0,0,0,.55c0,.05,0,.1,0,.15l0,57.79a4.84,4.84,0,0,0,1.13,3.23,3.49,3.49,0,0,0,2.79,1.35h27.56a3.51,3.51,0,0,0,2.8-1.3,4.71,4.71,0,0,0,1.13-3.19A4.55,4.55,0,0,0,250,309.43Z"/><path class="cls-2" d="M250.74,287.37a45.21,45.21,0,0,1,1.42-11.49,29.59,29.59,0,0,1,4.26-9.45,20.68,20.68,0,0,1,7.1-6.39,22.13,22.13,0,0,1,19.85,0,21.19,21.19,0,0,1,7.08,6.41,29,29,0,0,1,4.25,9.41,47.36,47.36,0,0,1,0,23,29.59,29.59,0,0,1-4.26,9.45,20.8,20.8,0,0,1-7.1,6.43,22,22,0,0,1-19.85,0,21,21,0,0,1-7.08-6.44,29.36,29.36,0,0,1-4.25-9.45A45.22,45.22,0,0,1,250.74,287.37Zm7.92,0a42,42,0,0,0,.8,8.26,22.17,22.17,0,0,0,2.58,7,14,14,0,0,0,4.58,4.8,13.89,13.89,0,0,0,13.59,0,14.09,14.09,0,0,0,4.59-4.8,22.42,22.42,0,0,0,2.58-7,41.82,41.82,0,0,0,.81-8.25,41.37,41.37,0,0,0-.8-8.22,22.11,22.11,0,0,0-2.58-6.94,14.35,14.35,0,0,0-4.57-4.84,13.74,13.74,0,0,0-13.6,0,13.85,13.85,0,0,0-4.58,4.79,22.18,22.18,0,0,0-2.59,7A41.82,41.82,0,0,0,258.66,287.37Z"/><path class="cls-2" d="M332.53,306.61a2.17,2.17,0,0,1,1.16-.62,7.85,7.85,0,0,1,1.24-.1,3.67,3.67,0,0,1,2.61.94,3.72,3.72,0,0,1,1.31,2.73,3.9,3.9,0,0,1-1,2.87,11.83,11.83,0,0,1-3.13,2.4,22.85,22.85,0,0,1-4.25,1.6,24,24,0,0,1-6.36.72,21.75,21.75,0,0,1-10.4-2.37,21.46,21.46,0,0,1-7.38-6.44,28.84,28.84,0,0,1-4.39-9.45,46.1,46.1,0,0,1,0-23,28.28,28.28,0,0,1,4.41-9.41,21.57,21.57,0,0,1,7.38-6.4,21.89,21.89,0,0,1,10.4-2.36,23.94,23.94,0,0,1,6.36.74,21.88,21.88,0,0,1,4.26,1.6,10.64,10.64,0,0,1,3.12,2.33,3.9,3.9,0,0,1,1,2.87,3.72,3.72,0,0,1-1.31,2.72,3.48,3.48,0,0,1-2.26,1.09,2.26,2.26,0,0,1-1.12-.29l-1.28-.65a32.37,32.37,0,0,0-4.14-1.9,14.09,14.09,0,0,0-4.65-.65,13.87,13.87,0,0,0-7.2,1.77,14.45,14.45,0,0,0-4.88,4.8,21.87,21.87,0,0,0-2.76,7,37.72,37.72,0,0,0-.88,8.25,38.35,38.35,0,0,0,.87,8.25,21.93,21.93,0,0,0,2.76,7,14.39,14.39,0,0,0,4.86,4.8,13.78,13.78,0,0,0,7.2,1.78,16.92,16.92,0,0,0,2.18-.14,17.47,17.47,0,0,0,2.29-.44,11.71,11.71,0,0,0,2.19-.79A6.49,6.49,0,0,0,332.53,306.61Z"/><path class="cls-2" d="M343.21,313.16l0-51.48a3.92,3.92,0,0,1,1.13-2.83,3.5,3.5,0,0,1,2.8-1.09,4.33,4.33,0,0,1,2.84,1.16,3.65,3.65,0,0,1,1.16,2.77v10.76q0,5.67,2.47,5.67,1.81,0,4.44-3.12l13.46-15.85a3.43,3.43,0,0,1,3.05-1.38,4,4,0,0,1,2.55.88,3.54,3.54,0,0,1,1.41,2.69,3.83,3.83,0,0,1-1,2.91l-14.7,17.29a8.65,8.65,0,0,0-2.26,6.29,8.89,8.89,0,0,0,3,6l17.73,16.52a3.57,3.57,0,0,1,1.28,2.69,4,4,0,0,1-1.06,2.83,3.72,3.72,0,0,1-2.91,1.31,3.64,3.64,0,0,1-2.69-1.09l-23-21.46a1.5,1.5,0,0,0-.58-.3,1,1,0,0,0-.65.37,1.47,1.47,0,0,0-.4.76,3.46,3.46,0,0,0-.11.84v16.87A3.71,3.71,0,0,1,350,316a4.2,4.2,0,0,1-2.83,1.2,3.45,3.45,0,0,1-2.8-1.13A4,4,0,0,1,343.21,313.16Z"/><path class="cls-2" d="M385.48,272.47a14.13,14.13,0,0,1,1.2-5.82,12.15,12.15,0,0,1,3.75-4.65,19.12,19.12,0,0,1,6.44-3.09,33.32,33.32,0,0,1,9.2-1.12,30.26,30.26,0,0,1,5.89.51,22.63,22.63,0,0,1,4.43,1.32,14,14,0,0,1,3.2,1.82,15,15,0,0,1,2.18,2,11.07,11.07,0,0,1,1.67,2.44,21.17,21.17,0,0,1,.94,2.22,10.88,10.88,0,0,1,.37,2.11,4,4,0,0,1-1,2.9,3.31,3.31,0,0,1-2.77,1.17,4.44,4.44,0,0,1-2.72-1,4.23,4.23,0,0,1-1.42-2.62,6.71,6.71,0,0,0-.47-1.2,4.79,4.79,0,0,0-1.56-1.68,12,12,0,0,0-3.24-1.49,18.93,18.93,0,0,0-5.49-.66q-6.18,0-9.38,1.64a5.58,5.58,0,0,0-3.27,5.19,5.15,5.15,0,0,0,.9,3.27,11.23,11.23,0,0,0,2.44,2.48,28.18,28.18,0,0,0,4.76,2.76q2.65,1.25,5.41,2.41c2,.82,4.14,1.76,6.29,2.8a31.46,31.46,0,0,1,5.89,3.67,18.22,18.22,0,0,1,4.36,5,13.42,13.42,0,0,1,1.78,6.73,14.37,14.37,0,0,1-1.61,7.34,13.64,13.64,0,0,1-4.47,4.83,18.74,18.74,0,0,1-6.44,2.65,35.24,35.24,0,0,1-7.56.8,21.92,21.92,0,0,1-8.07-1.17,23.46,23.46,0,0,1-5.23-2.7,14.19,14.19,0,0,1-3.93-4,9.32,9.32,0,0,1-1.45-4.11,4.23,4.23,0,0,1,.77-2.87,4,4,0,0,1,2.51-1.71,1.79,1.79,0,0,1,.58-.07,3.91,3.91,0,0,1,2.4.83,4,4,0,0,1,1.45,2.08l.22.87a5.5,5.5,0,0,0,3.41,3.75,18.72,18.72,0,0,0,7.35,1.2,34.47,34.47,0,0,0,4.61-.29,12,12,0,0,0,3.89-1.12,6.69,6.69,0,0,0,2.66-2.36,7.2,7.2,0,0,0,1-3.93,5.45,5.45,0,0,0-1-3.27,11.18,11.18,0,0,0-2.43-2.48,29,29,0,0,0-4.73-2.73q-2.61-1.2-5.38-2.43c-2.18-1-4.28-1.93-6.32-2.88a30,30,0,0,1-5.45-3.24,17.71,17.71,0,0,1-4.8-5.2A13.24,13.24,0,0,1,385.48,272.47Z"/><path class="cls-1" d="M394.54,323.55a165.36,165.36,0,0,1-310.89-19H76.38c20.17,72.79,87,126.4,166.09,126.4,72.06,0,133.92-44.46,159.63-107.38Z"/><path class="cls-1" d="M407.61,250.47h7c-4.25-91.29-79.84-164.26-172.16-164.26q-8.78,0-17.33.87v7.06A165.35,165.35,0,0,1,407.61,250.47Z"/><path class="cls-1" d="M390.52,250.47a147.09,147.09,0,0,0-12.87-52.6h-7.44a140.43,140.43,0,0,1,13.46,52.6Z"/><path class="cls-1" d="M368.11,323.55a141.4,141.4,0,0,1-201.85,54.13v8a148.15,148.15,0,0,0,209.47-62.16Z"/><path class="cls-1" d="M358.65,226.85h-6.5a114.53,114.53,0,0,1,4.24,23.43h6.29A120.82,120.82,0,0,0,358.65,226.85Z"/><path class="cls-1" d="M242.47,372.81A113.68,113.68,0,0,1,179,353.56c-10.61-7.83-33.65-27.18-44.52-60.37a115.83,115.83,0,0,1-4-16.19h-6.32a121.61,121.61,0,0,0,5.24,20.51c12.56,35.73,38.4,55.77,49.63,63.45a120.35,120.35,0,0,0,165-37.6h-7.49A114.08,114.08,0,0,1,242.47,372.81Z"/><path class="cls-3" d="M464.82,133.85,232.29,7.5,6.6,145.71l6.85,264.56L246,536.61,471.67,398.4Zm-219,397.91-228.27-124L10.86,148,232.41,12.35l228.27,124,6.73,259.7Z"/></g></g></svg>