<svg xmlns="http://www.w3.org/2000/svg" viewBox="0 0 478.27 544.11"><defs><style>.cls-1{fill:#f9ae00;stroke:#f9ae00;stroke-width:13px;}.cls-1,.cls-2{stroke-miterlimit:10;}.cls-2{fill:#2e2d2c;stroke:#2e2d2c;stroke-width:3px;}</style></defs><g id="Capa_2" data-name="Capa 2"><g id="Capa_1-2" data-name="Capa 1"><path class="cls-1" d="M464.82,133.85,232.29,7.5,6.6,145.71l6.85,264.56L246,536.61,471.67,398.4Zm-219,397.91-228.27-124L10.86,148,232.41,12.35l228.27,124,6.73,259.7Z"/><path class="cls-2" d="M235.86,91.73c-6.12,0-12.17.32-18.13.91V100a175,175,0,0,1,18.13-1A173,173,0,1,1,69.7,320.14H62.09c21.1,76.16,91,132.24,173.77,132.24,99.43,0,180.32-80.89,180.32-180.33S335.29,91.73,235.86,91.73Z"/><path class="cls-2" d="M307.93,142.83v-8.08a154.61,154.61,0,0,0-142.13-1v8a148,148,0,0,1,142.13,1.12Z"/><path class="cls-2" d="M377.29,208.55H369.5A147.94,147.94,0,0,1,156.12,396.68v8.39a154.2,154.2,0,0,0,79.74,22.12C321.4,427.19,391,357.6,391,272.06A154,154,0,0,0,377.29,208.55Z"/><path class="cls-2" d="M140.11,341.61A119.46,119.46,0,0,1,147,191.43L140,189.59a125.95,125.95,0,0,0-1.91,160Z"/><path class="cls-2" d="M328.31,196.19l6.61-2.22a126.69,126.69,0,0,0-97.75-49.4l2.22,6.61A119.87,119.87,0,0,1,328.31,196.19Z"/><path class="cls-2" d="M350.61,238.87A119.48,119.48,0,0,1,169.47,371.44v7.74A125.89,125.89,0,0,0,357.41,238.87Z"/><path class="cls-2" d="M143.86,272.06a91.93,91.93,0,0,1,53.35-83.4v-7.91a98.75,98.75,0,0,0-56.73,118.11h7.38A92,92,0,0,1,143.86,272.06Z"/></g></g></svg>