<svg xmlns="http://www.w3.org/2000/svg" viewBox="0 0 634.22 202.41"><defs><style>.cls-1{fill:#f9ae00;stroke:#f9ae00;stroke-miterlimit:10;}.cls-2{fill:#2e2d2c;}</style></defs><g id="Capa_2" data-name="Capa 2"><g id="Capa_1-2" data-name="Capa 1"><path class="cls-1" d="M373.05,99.65a51.42,51.42,0,0,0-5.14.26V102a49.05,49.05,0,1,1-42,62.41h-2.16a51.13,51.13,0,1,0,49.27-64.76Z"/><path class="cls-1" d="M393.49,114.14v-2.29a43.81,43.81,0,0,0-40.3-.3v2.27a41.93,41.93,0,0,1,40.3.32Z"/><path class="cls-1" d="M413.16,132.77H411a41.95,41.95,0,0,1-60.5,53.34v2.38a43.95,43.95,0,0,0,62.71-55.72Z"/><path class="cls-1" d="M345.91,170.5a33.85,33.85,0,0,1,2-42.58l-2-.52a35.7,35.7,0,0,0-.54,45.37Z"/><path class="cls-1" d="M399.27,129.27l1.87-.63a35.9,35.9,0,0,0-27.71-14l.62,1.88A33.94,33.94,0,0,1,399.27,129.27Z"/><path class="cls-1" d="M405.59,141.37A33.88,33.88,0,0,1,354.23,179v2.19a35.7,35.7,0,0,0,53.29-39.78Z"/><path class="cls-1" d="M347,150.78a26.07,26.07,0,0,1,15.13-23.65v-2.24A28,28,0,0,0,346,158.38h2.09A26.17,26.17,0,0,1,347,150.78Z"/><path class="cls-2" d="M51.38,78.29a3.4,3.4,0,0,1,1.86-1,12.82,12.82,0,0,1,2-.17,5.89,5.89,0,0,1,4.19,1.51A6,6,0,0,1,61.51,83a6.3,6.3,0,0,1-1.63,4.6,18.89,18.89,0,0,1-5,3.85A36.7,36.7,0,0,1,48.06,94a38,38,0,0,1-10.2,1.17A35,35,0,0,1,21.2,91.4,34.19,34.19,0,0,1,9.38,81.09a46,46,0,0,1-7-15.15A70.37,70.37,0,0,1,0,47.54,70.45,70.45,0,0,1,2.33,29.13,45.35,45.35,0,0,1,9.38,14,34.54,34.54,0,0,1,21.2,3.79,35,35,0,0,1,37.86,0a38.5,38.5,0,0,1,10.2,1.16,36.7,36.7,0,0,1,6.81,2.56,17.14,17.14,0,0,1,5,3.73,6.31,6.31,0,0,1,1.63,4.6,6,6,0,0,1-2.1,4.37c-1.47,1.25-2.68,1.83-3.61,1.75a3.67,3.67,0,0,1-1.8-.47l-2-1a52.63,52.63,0,0,0-6.64-3,22.33,22.33,0,0,0-7.46-1.05,22.1,22.1,0,0,0-11.53,2.85,23.15,23.15,0,0,0-7.81,7.69A35.06,35.06,0,0,0,14.1,34.32a60.8,60.8,0,0,0-1.4,13.22,60.8,60.8,0,0,0,1.4,13.22,35,35,0,0,0,4.42,11.18,23,23,0,0,0,7.81,7.69,22,22,0,0,0,11.53,2.86,27.58,27.58,0,0,0,3.5-.24A28.59,28.59,0,0,0,45,81.56a18.55,18.55,0,0,0,3.49-1.29A10.23,10.23,0,0,0,51.38,78.29Z"/><path class="cls-2" d="M68.5,6.3a6.25,6.25,0,0,1,1.86-4.49A5.73,5.73,0,0,1,74.91,0h44a6.15,6.15,0,0,1,6.29,6.29,6.17,6.17,0,0,1-6.29,6.29H95.41q-6.52,0-10.37,3.9A14.06,14.06,0,0,0,81.2,26.8v2.45A12,12,0,0,0,84.4,38a11.64,11.64,0,0,0,8.68,3.26H105a6.11,6.11,0,0,1,4.49,1.8,6.55,6.55,0,0,1,1.92,4.49,5.53,5.53,0,0,1-1.8,4.48A6.49,6.49,0,0,1,105,53.83H93.08a11.64,11.64,0,0,0-8.68,3.26,12,12,0,0,0-3.2,8.74v2.44A14,14,0,0,0,85,78.58q3.85,3.92,10.37,3.91h23.53a6.15,6.15,0,0,1,6.29,6.29,6.28,6.28,0,0,1-1.8,4.54,6,6,0,0,1-4.49,1.87H74.79a5.89,5.89,0,0,1-4.48-1.93,6.45,6.45,0,0,1-1.81-4.6Z"/><path class="cls-2" d="M132.22,6.41A6.47,6.47,0,0,1,134,1.81a5.68,5.68,0,0,1,4.6-1.8h25.28a28.46,28.46,0,0,1,11.53,2.33,30,30,0,0,1,15.73,15.72A28.54,28.54,0,0,1,193.5,29.6a28.18,28.18,0,0,1-2.68,12.93,34.61,34.61,0,0,1-8.27,10.13A5.48,5.48,0,0,0,181,54.82a3.12,3.12,0,0,0,.11,2.5L193,86.45a6.31,6.31,0,0,1-.06,4.83,6.24,6.24,0,0,1-3.44,3.44,5.2,5.2,0,0,1-2.33.47,6.31,6.31,0,0,1-3.49-1,5.72,5.72,0,0,1-2.33-2.92L169,60.93a2.3,2.3,0,0,0-1.23-1.33,4.08,4.08,0,0,0-1.8-.41,8.27,8.27,0,0,0-1,.06,8.4,8.4,0,0,1-1.05,0h-9.55a8.85,8.85,0,0,0-9.44,9.44v20a6,6,0,0,1-1.86,4.48,6.72,6.72,0,0,1-4.54,1.93A5.58,5.58,0,0,1,134,93.38a6.45,6.45,0,0,1-1.81-4.6Zm12.7,15.73v15A9.3,9.3,0,0,0,147.49,44a9.14,9.14,0,0,0,6.87,2.63h9.55a16.37,16.37,0,0,0,6.58-1.34,17.31,17.31,0,0,0,9.09-9.09,16.4,16.4,0,0,0,1.34-6.58A16.8,16.8,0,0,0,179.58,23a16.44,16.44,0,0,0-3.67-5.42,17.67,17.67,0,0,0-5.42-3.61,16.37,16.37,0,0,0-6.58-1.34h-9.55a9.13,9.13,0,0,0-6.87,2.62A9.49,9.49,0,0,0,144.92,22.14Z"/><path class="cls-2" d="M201,0h65.47a6.17,6.17,0,0,1,4.43,1.8,6,6,0,0,1,1.86,4.49,6,6,0,0,1-1.86,4.48,6.14,6.14,0,0,1-4.43,1.81H253.15a12.89,12.89,0,0,0-9.55,3.61A12.9,12.9,0,0,0,240,25.75v63a6.29,6.29,0,0,1-1.81,4.54,6,6,0,0,1-4.49,1.87,6.37,6.37,0,0,1-6.4-6.41v-63a12.94,12.94,0,0,0-3.61-9.55,12.93,12.93,0,0,0-9.56-3.61H201a6.17,6.17,0,0,1-6.29-6.29A6.15,6.15,0,0,1,201,0Z"/><path class="cls-2" d="M193.53,113.12a6.29,6.29,0,0,1,1.81-4.54,6,6,0,0,1,4.49-1.87l24.58,0a26.26,26.26,0,0,1,10.48,2.1,25.6,25.6,0,0,1,8.44,5.77,28.2,28.2,0,0,1,5.65,8.57,26.29,26.29,0,0,1,2.09,10.48A27.22,27.22,0,0,1,249,144a26.2,26.2,0,0,1-5.78,8.73L243,153c-.08.08-.08.19,0,.35a26.59,26.59,0,0,1,10.59,21.56,26.3,26.3,0,0,1-2.1,10.48,28.18,28.18,0,0,1-5.66,8.56,26.55,26.55,0,0,1-8.45,5.82,25.83,25.83,0,0,1-10.48,2.15l-27,0a6.61,6.61,0,0,1-4.54-2,6.11,6.11,0,0,1-1.86-4.54Zm23,76.08h10.36a13.49,13.49,0,0,0,5.6-1.16,14.24,14.24,0,0,0,7.4-7.63,14,14,0,0,0,1.11-5.53,13.66,13.66,0,0,0-1.11-5.48,14.83,14.83,0,0,0-3-4.54,14.68,14.68,0,0,0-4.49-3.15,13,13,0,0,0-5.47-1.17H215.29a8.6,8.6,0,0,0-9.09,9.09v9.2a10.31,10.31,0,0,0,2.79,7.52A10.14,10.14,0,0,0,216.56,189.2Zm-10.34-50.45a9.08,9.08,0,0,0,2.5,6.65A8.78,8.78,0,0,0,215.3,148h9.2a12.8,12.8,0,0,0,5.42-1.16,14.87,14.87,0,0,0,7.46-7.75,13.71,13.71,0,0,0,1.11-5.41,14.26,14.26,0,0,0-1.1-5.54,14.64,14.64,0,0,0-3-4.54,14.4,14.4,0,0,0-4.43-3.09,13.3,13.3,0,0,0-5.59-1.17h-9.09a8.6,8.6,0,0,0-9.09,9.09Z"/><path class="cls-2" d="M315,189.67a5.76,5.76,0,0,0-4.48-2H286.94a13.08,13.08,0,0,1-10.37-4.4q-3.84-4.38-3.84-11.59l0-69.66a7.88,7.88,0,0,0-.07-.86c0-.1,0-.18,0-.28V28.34a7.64,7.64,0,0,0-1.86-5.2A5.81,5.81,0,0,0,266.31,21a5.62,5.62,0,0,0-4.48,2.14,7.75,7.75,0,0,0-1.81,5.2v72.49a8.25,8.25,0,0,0,.07.88c0,.08,0,.16,0,.25L260,194.54a7.76,7.76,0,0,0,1.81,5.17,5.58,5.58,0,0,0,4.48,2.17l44.15,0a5.71,5.71,0,0,0,4.49-2.09,7.59,7.59,0,0,0,1.81-5.11A7.27,7.27,0,0,0,315,189.67Z"/><path class="cls-2" d="M485.67,185.14a3.46,3.46,0,0,1,1.87-1,12.82,12.82,0,0,1,2-.17,6.16,6.16,0,0,1,6.29,5.89,6.32,6.32,0,0,1-1.64,4.6,18.67,18.67,0,0,1-5,3.84,36.7,36.7,0,0,1-6.81,2.56,38.5,38.5,0,0,1-10.2,1.16,35,35,0,0,1-16.66-3.8,34.25,34.25,0,0,1-11.81-10.31,46.12,46.12,0,0,1-7-15.15,73.9,73.9,0,0,1,0-36.82,45.5,45.5,0,0,1,7-15.08,33.71,33.71,0,0,1,28.5-14A38,38,0,0,1,482.4,108a35.7,35.7,0,0,1,6.81,2.57,17.14,17.14,0,0,1,5,3.73,6.3,6.3,0,0,1,1.63,4.6,6,6,0,0,1-2.1,4.37c-1.48,1.24-2.68,1.82-3.61,1.74a3.78,3.78,0,0,1-1.81-.46q-.87-.46-2-1a52.2,52.2,0,0,0-6.64-3,25.58,25.58,0,0,0-19,1.8,23.21,23.21,0,0,0-7.81,7.68,35.25,35.25,0,0,0-4.43,11.18A62.15,62.15,0,0,0,447,154.37a61.42,61.42,0,0,0,1.4,13.22,34.93,34.93,0,0,0,4.42,11.19,23,23,0,0,0,7.8,7.69,22.08,22.08,0,0,0,11.53,2.86,29.29,29.29,0,0,0,3.49-.23,29.72,29.72,0,0,0,3.67-.7,18.35,18.35,0,0,0,3.5-1.28A10.18,10.18,0,0,0,485.67,185.14Z"/><path class="cls-2" d="M502.79,195.64l0-82.48a6.29,6.29,0,0,1,1.81-4.55,5.62,5.62,0,0,1,4.49-1.74,6.85,6.85,0,0,1,4.54,1.87,5.81,5.81,0,0,1,1.86,4.43v17.24c0,6.05,1.31,9.08,4,9.09q2.91,0,7.1-5l21.57-25.38a5.44,5.44,0,0,1,4.89-2.21,6.28,6.28,0,0,1,4.08,1.4,5.66,5.66,0,0,1,2.27,4.31,6.17,6.17,0,0,1-1.57,4.66L534.28,145a13.78,13.78,0,0,0-3.62,10.07,14.23,14.23,0,0,0,4.77,9.62l28.41,26.46a5.72,5.72,0,0,1,2,4.31,6.49,6.49,0,0,1-1.69,4.54,6,6,0,0,1-4.67,2.1,5.88,5.88,0,0,1-4.31-1.75L518.3,165.94a2.58,2.58,0,0,0-.93-.47,1.62,1.62,0,0,0-1,.59,2.47,2.47,0,0,0-.64,1.22,6.37,6.37,0,0,0-.17,1.34l0,27a6,6,0,0,1-1.87,4.48,6.73,6.73,0,0,1-4.54,1.92,5.56,5.56,0,0,1-4.48-1.81A6.45,6.45,0,0,1,502.79,195.64Z"/><path class="cls-2" d="M570.52,130.44a22.63,22.63,0,0,1,1.92-9.32,19.35,19.35,0,0,1,6-7.45,30.65,30.65,0,0,1,10.31-5,53.5,53.5,0,0,1,14.74-1.8,48.8,48.8,0,0,1,9.44.83,36.33,36.33,0,0,1,7.1,2.1,22.64,22.64,0,0,1,5.12,2.91,23.83,23.83,0,0,1,3.5,3.27,18.05,18.05,0,0,1,2.68,3.9c.61,1.28,1.12,2.47,1.51,3.56a18.32,18.32,0,0,1,.58,3.37,6.42,6.42,0,0,1-1.63,4.66,5.33,5.33,0,0,1-4.43,1.86,7,7,0,0,1-4.37-1.63,6.74,6.74,0,0,1-2.27-4.2,10.11,10.11,0,0,0-.76-1.92,7.57,7.57,0,0,0-2.5-2.68,18.64,18.64,0,0,0-5.18-2.39,30.06,30.06,0,0,0-8.8-1q-9.9,0-15,2.61a9,9,0,0,0-5.25,8.33,8.28,8.28,0,0,0,1.46,5.24,17.62,17.62,0,0,0,3.9,4,46,46,0,0,0,7.63,4.43q4.24,2,8.67,3.85,4.89,2,10.08,4.49a50.89,50.89,0,0,1,9.43,5.89,29.45,29.45,0,0,1,7,8,21.47,21.47,0,0,1,2.84,10.77,22.89,22.89,0,0,1-2.57,11.77,22.08,22.08,0,0,1-7.16,7.74,30.25,30.25,0,0,1-10.32,4.25,55.83,55.83,0,0,1-12.11,1.27,34.65,34.65,0,0,1-12.93-1.87,38.13,38.13,0,0,1-8.39-4.31,23,23,0,0,1-6.29-6.47,14.85,14.85,0,0,1-2.32-6.59,6.83,6.83,0,0,1,1.22-4.6,6.43,6.43,0,0,1,4-2.73,3,3,0,0,1,.94-.12,6.19,6.19,0,0,1,3.84,1.34,6.4,6.4,0,0,1,2.33,3.32l.35,1.4a8.84,8.84,0,0,0,5.47,6q4.43,1.92,11.76,1.92a55.27,55.27,0,0,0,7.4-.46,19.42,19.42,0,0,0,6.24-1.8,10.58,10.58,0,0,0,4.25-3.78,11.52,11.52,0,0,0,1.58-6.29,8.9,8.9,0,0,0-1.57-5.25,18.27,18.27,0,0,0-3.9-4,44.91,44.91,0,0,0-7.57-4.37q-4.2-1.94-8.62-3.91-5.25-2.33-10.13-4.61a46.59,46.59,0,0,1-8.74-5.19,28.1,28.1,0,0,1-7.68-8.33A21.15,21.15,0,0,1,570.52,130.44Z"/></g></g></svg>